<mxfile host="app.diagrams.net" agent="Mozilla/5.0 (Windows NT 10.0; Win64; x64) AppleWebKit/537.36 (KHTML, like Gecko) Chrome/131.0.0.0 Safari/537.36" version="25.0.3">
  <diagram id="C5RBs43oDa-KdzZeNtuy" name="Page-1">
    <mxGraphModel dx="749" dy="1853" grid="1" gridSize="10" guides="1" tooltips="1" connect="1" arrows="1" fold="1" page="1" pageScale="1" pageWidth="827" pageHeight="1169" math="0" shadow="0">
      <root>
        <mxCell id="WIyWlLk6GJQsqaUBKTNV-0" />
        <mxCell id="WIyWlLk6GJQsqaUBKTNV-1" parent="WIyWlLk6GJQsqaUBKTNV-0" />
        <mxCell id="Ed0RC5Wu_TEz6SR_X2Kp-2" style="edgeStyle=orthogonalEdgeStyle;rounded=0;orthogonalLoop=1;jettySize=auto;html=1;exitX=0.5;exitY=1;exitDx=0;exitDy=0;entryX=0.5;entryY=0;entryDx=0;entryDy=0;" edge="1" parent="WIyWlLk6GJQsqaUBKTNV-1" source="Ed0RC5Wu_TEz6SR_X2Kp-0" target="Ed0RC5Wu_TEz6SR_X2Kp-1">
          <mxGeometry relative="1" as="geometry" />
        </mxCell>
        <mxCell id="Ed0RC5Wu_TEz6SR_X2Kp-0" value="Начало" style="ellipse;whiteSpace=wrap;html=1;" vertex="1" parent="WIyWlLk6GJQsqaUBKTNV-1">
          <mxGeometry x="310" y="60" width="80" height="40" as="geometry" />
        </mxCell>
        <mxCell id="Ed0RC5Wu_TEz6SR_X2Kp-4" style="edgeStyle=orthogonalEdgeStyle;rounded=0;orthogonalLoop=1;jettySize=auto;html=1;exitX=0.5;exitY=1;exitDx=0;exitDy=0;entryX=0.5;entryY=0;entryDx=0;entryDy=0;" edge="1" parent="WIyWlLk6GJQsqaUBKTNV-1" source="Ed0RC5Wu_TEz6SR_X2Kp-1" target="Ed0RC5Wu_TEz6SR_X2Kp-3">
          <mxGeometry relative="1" as="geometry" />
        </mxCell>
        <mxCell id="Ed0RC5Wu_TEz6SR_X2Kp-1" value="cout &amp;lt;&amp;lt; &quot;&quot;Введите путь к текстовому файлу: \n&quot;" style="shape=parallelogram;perimeter=parallelogramPerimeter;whiteSpace=wrap;html=1;fixedSize=1;" vertex="1" parent="WIyWlLk6GJQsqaUBKTNV-1">
          <mxGeometry x="265" y="120" width="170" height="60" as="geometry" />
        </mxCell>
        <mxCell id="Ed0RC5Wu_TEz6SR_X2Kp-6" style="edgeStyle=orthogonalEdgeStyle;rounded=0;orthogonalLoop=1;jettySize=auto;html=1;exitX=0.5;exitY=1;exitDx=0;exitDy=0;entryX=0.5;entryY=0;entryDx=0;entryDy=0;" edge="1" parent="WIyWlLk6GJQsqaUBKTNV-1" source="Ed0RC5Wu_TEz6SR_X2Kp-3" target="Ed0RC5Wu_TEz6SR_X2Kp-5">
          <mxGeometry relative="1" as="geometry" />
        </mxCell>
        <mxCell id="Ed0RC5Wu_TEz6SR_X2Kp-3" value="cin &amp;gt;&amp;gt; path" style="shape=parallelogram;perimeter=parallelogramPerimeter;whiteSpace=wrap;html=1;fixedSize=1;" vertex="1" parent="WIyWlLk6GJQsqaUBKTNV-1">
          <mxGeometry x="290" y="200" width="120" height="40" as="geometry" />
        </mxCell>
        <mxCell id="Ed0RC5Wu_TEz6SR_X2Kp-8" value="" style="edgeStyle=orthogonalEdgeStyle;rounded=0;orthogonalLoop=1;jettySize=auto;html=1;" edge="1" parent="WIyWlLk6GJQsqaUBKTNV-1" source="Ed0RC5Wu_TEz6SR_X2Kp-5" target="Ed0RC5Wu_TEz6SR_X2Kp-7">
          <mxGeometry relative="1" as="geometry" />
        </mxCell>
        <mxCell id="Ed0RC5Wu_TEz6SR_X2Kp-5" value="fin.open(path)" style="shape=process;whiteSpace=wrap;html=1;backgroundOutline=1;" vertex="1" parent="WIyWlLk6GJQsqaUBKTNV-1">
          <mxGeometry x="290" y="260" width="120" height="40" as="geometry" />
        </mxCell>
        <mxCell id="Ed0RC5Wu_TEz6SR_X2Kp-10" value="" style="edgeStyle=orthogonalEdgeStyle;rounded=0;orthogonalLoop=1;jettySize=auto;html=1;" edge="1" parent="WIyWlLk6GJQsqaUBKTNV-1" source="Ed0RC5Wu_TEz6SR_X2Kp-7" target="Ed0RC5Wu_TEz6SR_X2Kp-9">
          <mxGeometry relative="1" as="geometry" />
        </mxCell>
        <mxCell id="Ed0RC5Wu_TEz6SR_X2Kp-14" style="edgeStyle=orthogonalEdgeStyle;rounded=0;orthogonalLoop=1;jettySize=auto;html=1;exitX=1;exitY=0.5;exitDx=0;exitDy=0;entryX=0.5;entryY=0;entryDx=0;entryDy=0;" edge="1" parent="WIyWlLk6GJQsqaUBKTNV-1" source="Ed0RC5Wu_TEz6SR_X2Kp-7" target="Ed0RC5Wu_TEz6SR_X2Kp-13">
          <mxGeometry relative="1" as="geometry" />
        </mxCell>
        <mxCell id="Ed0RC5Wu_TEz6SR_X2Kp-7" value="!fin.is_open()" style="rhombus;whiteSpace=wrap;html=1;" vertex="1" parent="WIyWlLk6GJQsqaUBKTNV-1">
          <mxGeometry x="300" y="330" width="100" height="80" as="geometry" />
        </mxCell>
        <mxCell id="Ed0RC5Wu_TEz6SR_X2Kp-23" style="edgeStyle=orthogonalEdgeStyle;rounded=0;orthogonalLoop=1;jettySize=auto;html=1;exitX=0.5;exitY=1;exitDx=0;exitDy=0;entryX=0.5;entryY=0;entryDx=0;entryDy=0;" edge="1" parent="WIyWlLk6GJQsqaUBKTNV-1" source="Ed0RC5Wu_TEz6SR_X2Kp-9" target="Ed0RC5Wu_TEz6SR_X2Kp-22">
          <mxGeometry relative="1" as="geometry">
            <Array as="points">
              <mxPoint x="155" y="750" />
              <mxPoint x="350" y="750" />
            </Array>
          </mxGeometry>
        </mxCell>
        <mxCell id="Ed0RC5Wu_TEz6SR_X2Kp-9" value="cout &amp;lt;&amp;lt; &quot;Не удалось открыть файл\n&quot;" style="shape=parallelogram;perimeter=parallelogramPerimeter;whiteSpace=wrap;html=1;fixedSize=1;" vertex="1" parent="WIyWlLk6GJQsqaUBKTNV-1">
          <mxGeometry x="80" y="340" width="150" height="60" as="geometry" />
        </mxCell>
        <mxCell id="Ed0RC5Wu_TEz6SR_X2Kp-11" value="Да" style="text;html=1;align=center;verticalAlign=middle;whiteSpace=wrap;rounded=0;" vertex="1" parent="WIyWlLk6GJQsqaUBKTNV-1">
          <mxGeometry x="250" y="340" width="60" height="30" as="geometry" />
        </mxCell>
        <mxCell id="Ed0RC5Wu_TEz6SR_X2Kp-12" value="Нет" style="text;html=1;align=center;verticalAlign=middle;whiteSpace=wrap;rounded=0;" vertex="1" parent="WIyWlLk6GJQsqaUBKTNV-1">
          <mxGeometry x="400" y="340" width="60" height="30" as="geometry" />
        </mxCell>
        <mxCell id="Ed0RC5Wu_TEz6SR_X2Kp-16" style="edgeStyle=orthogonalEdgeStyle;rounded=0;orthogonalLoop=1;jettySize=auto;html=1;exitX=0.5;exitY=1;exitDx=0;exitDy=0;entryX=0.5;entryY=0;entryDx=0;entryDy=0;" edge="1" parent="WIyWlLk6GJQsqaUBKTNV-1" source="Ed0RC5Wu_TEz6SR_X2Kp-13" target="Ed0RC5Wu_TEz6SR_X2Kp-15">
          <mxGeometry relative="1" as="geometry" />
        </mxCell>
        <mxCell id="Ed0RC5Wu_TEz6SR_X2Kp-24" style="edgeStyle=orthogonalEdgeStyle;rounded=0;orthogonalLoop=1;jettySize=auto;html=1;exitX=1;exitY=0.5;exitDx=0;exitDy=0;entryX=0.5;entryY=0;entryDx=0;entryDy=0;" edge="1" parent="WIyWlLk6GJQsqaUBKTNV-1" source="Ed0RC5Wu_TEz6SR_X2Kp-13" target="Ed0RC5Wu_TEz6SR_X2Kp-22">
          <mxGeometry relative="1" as="geometry">
            <Array as="points">
              <mxPoint x="640" y="415" />
              <mxPoint x="640" y="750" />
              <mxPoint x="350" y="750" />
            </Array>
          </mxGeometry>
        </mxCell>
        <mxCell id="Ed0RC5Wu_TEz6SR_X2Kp-13" value="while(!fin.eof())" style="shape=hexagon;perimeter=hexagonPerimeter2;whiteSpace=wrap;html=1;fixedSize=1;" vertex="1" parent="WIyWlLk6GJQsqaUBKTNV-1">
          <mxGeometry x="440" y="400" width="120" height="30" as="geometry" />
        </mxCell>
        <mxCell id="Ed0RC5Wu_TEz6SR_X2Kp-18" style="edgeStyle=orthogonalEdgeStyle;rounded=0;orthogonalLoop=1;jettySize=auto;html=1;exitX=0.5;exitY=1;exitDx=0;exitDy=0;entryX=0.5;entryY=0;entryDx=0;entryDy=0;" edge="1" parent="WIyWlLk6GJQsqaUBKTNV-1" source="Ed0RC5Wu_TEz6SR_X2Kp-15" target="Ed0RC5Wu_TEz6SR_X2Kp-17">
          <mxGeometry relative="1" as="geometry" />
        </mxCell>
        <mxCell id="Ed0RC5Wu_TEz6SR_X2Kp-15" value="string phone&lt;div&gt;string fio[3]&lt;/div&gt;&lt;div&gt;int number, series&lt;/div&gt;" style="rounded=0;whiteSpace=wrap;html=1;" vertex="1" parent="WIyWlLk6GJQsqaUBKTNV-1">
          <mxGeometry x="440" y="450" width="120" height="60" as="geometry" />
        </mxCell>
        <mxCell id="Ed0RC5Wu_TEz6SR_X2Kp-20" style="edgeStyle=orthogonalEdgeStyle;rounded=0;orthogonalLoop=1;jettySize=auto;html=1;exitX=0.5;exitY=1;exitDx=0;exitDy=0;entryX=0.5;entryY=0;entryDx=0;entryDy=0;" edge="1" parent="WIyWlLk6GJQsqaUBKTNV-1" source="Ed0RC5Wu_TEz6SR_X2Kp-17" target="Ed0RC5Wu_TEz6SR_X2Kp-19">
          <mxGeometry relative="1" as="geometry" />
        </mxCell>
        <mxCell id="Ed0RC5Wu_TEz6SR_X2Kp-17" value="fin &amp;gt;&amp;gt; phone &amp;gt;&amp;gt; fio[0] &amp;gt;&amp;gt; fio[1] &amp;gt;&amp;gt; fio[2] &amp;gt;&amp;gt; number &amp;gt;&amp;gt; series&amp;nbsp;" style="shape=parallelogram;perimeter=parallelogramPerimeter;whiteSpace=wrap;html=1;fixedSize=1;" vertex="1" parent="WIyWlLk6GJQsqaUBKTNV-1">
          <mxGeometry x="370" y="540" width="260" height="45" as="geometry" />
        </mxCell>
        <mxCell id="Ed0RC5Wu_TEz6SR_X2Kp-21" style="edgeStyle=orthogonalEdgeStyle;rounded=0;orthogonalLoop=1;jettySize=auto;html=1;entryX=0;entryY=0.5;entryDx=0;entryDy=0;" edge="1" parent="WIyWlLk6GJQsqaUBKTNV-1" source="Ed0RC5Wu_TEz6SR_X2Kp-19" target="Ed0RC5Wu_TEz6SR_X2Kp-13">
          <mxGeometry relative="1" as="geometry">
            <Array as="points">
              <mxPoint x="540" y="680" />
              <mxPoint x="360" y="680" />
              <mxPoint x="360" y="415" />
            </Array>
          </mxGeometry>
        </mxCell>
        <mxCell id="Ed0RC5Wu_TEz6SR_X2Kp-19" value="mp[phone] = info{fio[0], fio[1], fio[2], number, series}" style="rounded=0;whiteSpace=wrap;html=1;" vertex="1" parent="WIyWlLk6GJQsqaUBKTNV-1">
          <mxGeometry x="435" y="600" width="130" height="60" as="geometry" />
        </mxCell>
        <mxCell id="Ed0RC5Wu_TEz6SR_X2Kp-22" value="конец" style="ellipse;whiteSpace=wrap;html=1;" vertex="1" parent="WIyWlLk6GJQsqaUBKTNV-1">
          <mxGeometry x="310" y="780" width="80" height="30" as="geometry" />
        </mxCell>
      </root>
    </mxGraphModel>
  </diagram>
</mxfile>
